<svg xmlns="http://www.w3.org/2000/svg" width="512" height="512" viewBox="0 0 512 512"><title>ionicons-v5-h</title><rect width="352" height="192" x="80" y="112" fill="none" stroke="#000" stroke-linecap="round" stroke-linejoin="round" stroke-width="32" rx="32" ry="32"/><rect width="352" height="128" x="80" y="304" fill="none" stroke="#000" stroke-linecap="round" stroke-linejoin="round" stroke-width="32" rx="32" ry="32"/><path fill="none" stroke="#000" stroke-linecap="round" stroke-linejoin="round" stroke-width="32" d="M400,112H112A32.09,32.09,0,0,1,80,80h0a32.09,32.09,0,0,1,32-32H400a32.09,32.09,0,0,1,32,32h0A32.09,32.09,0,0,1,400,112Z"/><path fill="none" stroke="#000" stroke-linecap="round" stroke-linejoin="round" stroke-width="32" d="M144,432v22a10,10,0,0,1-10,10H106a10,10,0,0,1-10-10V432Z"/><path fill="none" stroke="#000" stroke-linecap="round" stroke-linejoin="round" stroke-width="32" d="M416,432v22a10,10,0,0,1-10,10H378a10,10,0,0,1-10-10V432Z"/><circle cx="368" cy="368" r="16" fill="none" stroke="#000" stroke-linejoin="round" stroke-width="32"/><circle cx="144" cy="368" r="16" fill="none" stroke="#000" stroke-linejoin="round" stroke-width="32"/><line x1="256" x2="256" y1="112" y2="304" fill="none" stroke="#000" stroke-linecap="round" stroke-linejoin="round" stroke-width="32"/><line x1="80" x2="80" y1="80" y2="368" fill="none" stroke="#000" stroke-linecap="round" stroke-linejoin="round" stroke-width="32"/><line x1="432" x2="432" y1="80" y2="368" fill="none" stroke="#000" stroke-linecap="round" stroke-linejoin="round" stroke-width="32"/></svg>