<svg xmlns="http://www.w3.org/2000/svg" width="512" height="512" viewBox="0 0 512 512"><title>ionicons-v5-o</title><path fill="none" stroke="#000" stroke-miterlimit="10" stroke-width="32" d="M421.83,293.82A144,144,0,0,0,218.18,90.17"/><path fill="none" stroke="#000" stroke-miterlimit="10" stroke-width="32" d="M353.94,225.94a48,48,0,0,0-67.88-67.88"/><line x1="192" x2="192" y1="464" y2="416" stroke="#000" stroke-linecap="round" stroke-miterlimit="10" stroke-width="32"/><line x1="90.18" x2="124.12" y1="421.82" y2="387.88" stroke="#000" stroke-linecap="round" stroke-miterlimit="10" stroke-width="32"/><line x1="48" x2="96" y1="320" y2="320" stroke="#000" stroke-linecap="round" stroke-miterlimit="10" stroke-width="32"/><path fill="none" stroke="#000" stroke-linejoin="round" stroke-width="32" d="M286.06,158.06,172.92,271.19a32,32,0,0,1-45.25,0L105,248.57a32,32,0,0,1,0-45.26L218.18,90.17"/><path fill="none" stroke="#000" stroke-linejoin="round" stroke-width="32" d="M421.83,293.82,308.69,407a32,32,0,0,1-45.26,0l-22.62-22.63a32,32,0,0,1,0-45.26L353.94,225.94"/><line x1="139.6" x2="207.48" y1="169.98" y2="237.87" fill="none" stroke="#000" stroke-linejoin="round" stroke-width="32"/><line x1="275.36" x2="343.25" y1="305.75" y2="373.63" fill="none" stroke="#000" stroke-linejoin="round" stroke-width="32"/></svg>